<svg width="512" height="378" viewBox="0 0 512 378" fill="none" xmlns="http://www.w3.org/2000/svg">
<path d="M362.704 377.529C368.336 377.529 371.156 370.72 367.174 366.738L344.069 343.633C342.884 342.448 341.276 341.782 339.599 341.782L252.849 341.782L288.596 377.529L362.704 377.529Z" fill="black"/>
<path d="M406.953 377.529C412.585 377.529 415.405 370.72 411.423 366.738L388.318 343.633C387.132 342.448 385.525 341.782 383.848 341.782L297.097 341.782L332.845 377.529L406.953 377.529Z" fill="black"/>
<path d="M179.622 341.791C173.99 341.791 171.17 348.6 175.152 352.582L198.257 375.687C199.442 376.872 201.05 377.538 202.727 377.538L289.477 377.538L253.73 341.791L179.622 341.791Z" fill="black"/>
<path d="M307.996 8.94861C307.996 3.31682 301.187 0.496656 297.205 4.47878L274.1 27.584C272.914 28.7693 272.249 30.3769 272.248 32.0537L272.248 118.804L307.996 83.0566L307.996 8.94861Z" fill="black"/>
<path d="M307.996 84.8033C307.996 79.1715 301.187 76.3513 297.205 80.3335L274.1 103.439C272.914 104.624 272.249 106.232 272.248 107.908L272.248 194.659L307.996 158.911L307.996 84.8033Z" fill="black"/>
<path d="M307.996 160.658C307.996 155.026 301.187 152.206 297.205 156.188L274.1 179.293C272.914 180.479 272.249 182.086 272.248 183.763L272.248 270.513L307.996 234.766L307.996 160.658Z" fill="black"/>
<path d="M307.996 179.622C307.996 173.99 301.187 171.17 297.205 175.152L274.1 198.257C272.914 199.442 272.249 201.05 272.248 202.727L272.248 289.477L307.996 253.73L307.996 179.622Z" fill="black"/>
<path d="M223.87 333.281C218.238 333.281 215.418 326.472 219.4 322.49L242.506 299.385C243.691 298.199 245.298 297.534 246.975 297.533L333.726 297.533L297.978 333.281L223.87 333.281Z" fill="black"/>
<path d="M179.622 333.281C173.99 333.281 171.17 326.472 175.152 322.49L198.257 299.385C199.442 298.199 201.05 297.534 202.727 297.533L289.477 297.533L253.73 333.281L179.622 333.281Z" fill="black"/>
<path d="M406.953 297.542C412.585 297.542 415.405 304.351 411.423 308.333L388.318 331.439C387.132 332.624 385.525 333.29 383.848 333.29L297.097 333.29L332.845 297.542L406.953 297.542Z" fill="black"/>
<path d="M362.704 289.032C368.336 289.032 371.156 282.223 367.174 278.241L344.069 255.136C342.884 253.951 341.276 253.285 339.599 253.285L252.849 253.285L288.596 289.032L362.704 289.032Z" fill="black"/>
<path d="M406.953 289.032C412.585 289.032 415.405 282.223 411.423 278.241L388.318 255.136C387.132 253.951 385.525 253.285 383.848 253.285L297.097 253.285L332.845 289.032L406.953 289.032Z" fill="black"/>
<path d="M179.622 253.294C173.99 253.294 171.17 260.103 175.152 264.085L198.257 287.19C199.442 288.375 201.05 289.041 202.727 289.041L289.477 289.041L253.73 253.294L179.622 253.294Z" fill="black"/>
<path d="M156.089 311.557C160.071 315.54 166.88 312.719 166.88 307.087V274.412C166.88 272.735 166.214 271.128 165.029 269.942L103.687 208.6L103.687 259.155L156.089 311.557Z" fill="black"/>
<path d="M107.442 212.297L55.0396 159.895C51.0574 155.912 44.2485 158.733 44.2485 164.364V197.04C44.2485 198.716 44.9145 200.324 46.1 201.51L107.442 262.851V212.297Z" fill="black"/>
<path d="M448.807 300.794L501.209 248.392C505.191 244.41 512 247.23 512 252.862V285.537C512 287.214 511.334 288.821 510.149 290.007L448.807 351.349V300.794Z" fill="black"/>
<path d="M486.715 262.867V310.804C486.715 312.48 486.049 314.088 484.864 315.273L423.522 376.615V328.679C423.522 327.002 424.187 325.394 425.373 324.209L486.715 262.867Z" fill="black"/>
<path d="M436.164 250.224L488.567 197.822C492.549 193.84 499.358 196.66 499.358 202.292V234.967C499.358 236.644 498.692 238.252 497.506 239.437L436.164 300.779V250.224Z" fill="black"/>
<path d="M486.715 199.655V247.591C486.715 249.268 486.049 250.875 484.864 252.061L423.522 313.403V265.467C423.522 263.79 424.187 262.182 425.373 260.997L486.715 199.655Z" fill="black"/>
<path d="M156.089 374.769C160.071 378.752 166.88 375.931 166.88 370.3V337.624C166.88 335.948 166.214 334.34 165.029 333.154L103.687 271.813L103.687 322.367L156.089 374.769Z" fill="black"/>
<path d="M113.763 281.83L61.3608 229.428C57.3786 225.446 50.5698 228.266 50.5698 233.898V266.573C50.5698 268.25 51.2357 269.858 52.4212 271.043L113.763 332.385V281.83Z" fill="black"/>
<path d="M63.1932 233.879C63.1932 232.202 62.5276 230.594 61.3417 229.409L10.7909 178.858C6.80915 174.876 0 177.696 0 183.328V216.004C0 217.68 0.666191 219.288 1.85142 220.473L63.1932 281.815V233.879Z" fill="black"/>
<path d="M94.8183 370.331C94.8183 373.823 97.6484 376.653 101.14 376.653H130.112C135.744 376.653 138.564 369.844 134.582 365.862L105.609 336.889C101.627 332.907 94.8183 335.727 94.8183 341.359V370.331Z" fill="black"/>
<path d="M85.8763 341.346C85.8763 337.855 83.0462 335.025 79.555 335.025H50.5824C44.9508 335.025 42.1305 341.833 46.1126 345.816L75.0853 374.788C79.0674 378.771 85.8763 375.95 85.8763 370.319V341.346Z" fill="black"/>
<path d="M44.2485 319.762C44.2485 323.253 47.0786 326.083 50.5698 326.083H79.5424C85.174 326.083 87.9943 319.274 84.0122 315.292L55.0396 286.319C51.0574 282.337 44.2485 285.157 44.2485 290.789V319.762Z" fill="black"/>
<path d="M476.391 345.816C473.922 343.347 469.92 343.347 467.451 345.816L446.964 366.302C442.982 370.285 445.802 377.093 451.434 377.093L492.408 377.094C498.039 377.094 500.859 370.285 496.877 366.303L476.391 345.816Z" fill="black"/>
</svg>
