<svg width="81" height="67" viewBox="0 0 81 67" fill="none" xmlns="http://www.w3.org/2000/svg">
<path d="M57.3788 59.7241C58.2698 59.7241 58.7159 58.647 58.0859 58.017L54.4308 54.3618C54.2432 54.1743 53.9889 54.069 53.7237 54.0689L40 54.0689L45.6552 59.7241L57.3788 59.7241Z" fill="#8B5C2A"/>
<path d="M64.3788 59.7241C65.2698 59.7241 65.7159 58.647 65.0859 58.017L61.4308 54.3618C61.2432 54.1743 60.9889 54.069 60.7237 54.0689L47 54.0689L52.6552 59.7241L64.3788 59.7241Z" fill="#8B5C2A"/>
<path d="M28.4156 54.0704C27.5247 54.0704 27.0786 55.1475 27.7085 55.7775L31.3637 59.4327C31.5512 59.6202 31.8055 59.7255 32.0708 59.7255L45.7945 59.7255L40.1393 54.0704L28.4156 54.0704Z" fill="#8B5C2A"/>
<path d="M48.7241 1.41564C48.7241 0.524712 47.647 0.0785696 47.017 0.708531L43.3618 4.36371C43.1743 4.55123 43.069 4.80555 43.0689 5.07081L43.0689 18.7945L48.7241 13.1393L48.7241 1.41564Z" fill="#D7B899"/>
<path d="M48.7241 13.4156C48.7241 12.5247 47.647 12.0786 47.017 12.7085L43.3618 16.3637C43.1743 16.5512 43.069 16.8055 43.0689 17.0708L43.0689 30.7945L48.7241 25.1393L48.7241 13.4156Z" fill="#D7B899"/>
<path d="M48.7241 25.4156C48.7241 24.5247 47.647 24.0786 47.017 24.7085L43.3618 28.3637C43.1743 28.5512 43.069 28.8055 43.0689 29.0708L43.0689 42.7945L48.7241 37.1393L48.7241 25.4156Z" fill="#D7B899"/>
<path d="M48.7241 28.4156C48.7241 27.5247 47.647 27.0786 47.017 27.7085L43.3618 31.3637C43.1743 31.5512 43.069 31.8055 43.0689 32.0708L43.0689 45.7945L48.7241 40.1393L48.7241 28.4156Z" fill="#D7B899"/>
<path d="M35.4156 52.7241C34.5247 52.7241 34.0786 51.647 34.7085 51.017L38.3637 47.3618C38.5512 47.1743 38.8055 47.069 39.0708 47.0689L52.7945 47.069L47.1393 52.7241L35.4156 52.7241Z" fill="#D7B899"/>
<path d="M28.4156 52.7241C27.5247 52.7241 27.0786 51.647 27.7085 51.017L31.3637 47.3618C31.5512 47.1743 31.8055 47.069 32.0708 47.0689L45.7945 47.069L40.1393 52.7241L28.4156 52.7241Z" fill="#D7B899"/>
<path d="M64.3788 47.0704C65.2698 47.0704 65.7159 48.1475 65.0859 48.7775L61.4308 52.4327C61.2432 52.6202 60.9889 52.7255 60.7237 52.7256L47 52.7255L52.6552 47.0704L64.3788 47.0704Z" fill="#D7B899"/>
<path d="M57.3788 45.7241C58.2698 45.7241 58.7159 44.647 58.0859 44.017L54.4308 40.3618C54.2432 40.1743 53.9889 40.069 53.7237 40.0689L40 40.0689L45.6552 45.7241L57.3788 45.7241Z" fill="#8B5C2A"/>
<path d="M64.3788 45.7241C65.2698 45.7241 65.7159 44.647 65.0859 44.017L61.4308 40.3618C61.2432 40.1743 60.9889 40.069 60.7237 40.0689L47 40.0689L52.6552 45.7241L64.3788 45.7241Z" fill="#8B5C2A"/>
<path d="M28.4156 40.0704C27.5247 40.0704 27.0786 41.1475 27.7085 41.7775L31.3637 45.4327C31.5512 45.6202 31.8055 45.7255 32.0708 45.7256L45.7945 45.7255L40.1393 40.0704L28.4156 40.0704Z" fill="#8B5C2A"/>
<path d="M24.6929 49.2875C25.3229 49.9175 26.4 49.4713 26.4 48.5804V43.4112C26.4 43.146 26.2946 42.8917 26.1071 42.7041L16.403 33V40.9976L24.6929 49.2875Z" fill="#D7B899"/>
<path d="M16.997 33.5848L8.70711 25.2949C8.07714 24.6649 7 25.1111 7 26.002V31.1712C7 31.4364 7.10536 31.6908 7.29289 31.8783L16.997 41.5824V33.5848Z" fill="#D7B899"/>
<path d="M71 47.5848L79.2899 39.2949C79.9199 38.6649 80.997 39.1111 80.997 40.002V45.1712C80.997 45.4364 80.8916 45.6908 80.7041 45.8783L71 55.5824V47.5848Z" fill="#8B5C2A"/>
<path d="M76.997 41.5849V49.1683C76.997 49.4335 76.8916 49.6878 76.7041 49.8754L67 59.5795V51.9961C67 51.7309 67.1053 51.4765 67.2929 51.289L76.997 41.5849Z" fill="#8B5C2A"/>
<path d="M69 39.5848L77.2899 31.2949C77.9199 30.6649 78.997 31.1111 78.997 32.002V37.1712C78.997 37.4364 78.8916 37.6908 78.7041 37.8783L69 47.5824V39.5848Z" fill="#D7B899"/>
<path d="M76.997 31.5849V39.1683C76.997 39.4335 76.8916 39.6878 76.7041 39.8754L67 49.5795V41.9961C67 41.7309 67.1053 41.4765 67.2929 41.289L76.997 31.5849Z" fill="#D7B899"/>
<path d="M24.6929 59.2875C25.3229 59.9175 26.4 59.4713 26.4 58.5804V53.4112C26.4 53.146 26.2946 52.8917 26.1071 52.7041L16.403 43V50.9976L24.6929 59.2875Z" fill="#8B5C2A"/>
<path d="M17.997 44.5848L9.70711 36.2949C9.07714 35.6649 8 36.1111 8 37.002V42.1712C8 42.4364 8.10536 42.6908 8.29289 42.8783L17.997 52.5824V44.5848Z" fill="#8B5C2A"/>
<path d="M9.99699 36.999C9.99699 36.7338 9.89169 36.4794 9.70409 36.2919L1.70709 28.2949C1.07719 27.6649 0 28.1111 0 29.002V34.1712C0 34.4364 0.10539 34.6908 0.29289 34.8783L9.99699 44.5824V36.999Z" fill="#8B5C2A"/>
<path d="M15 58.5854C15 59.1377 15.4477 59.5854 16 59.5854H20.5834C21.4743 59.5854 21.9205 58.5083 21.2905 57.8783L16.7071 53.2949C16.0771 52.6649 15 53.1111 15 54.002V58.5854Z" fill="#0496C7"/>
<path d="M13.5854 54C13.5854 53.4477 13.1377 53 12.5854 53H8.002C7.1111 53 6.66493 54.0771 7.29489 54.7071L11.8783 59.2905C12.5083 59.9205 13.5854 59.4743 13.5854 58.5834V54Z" fill="#0496C7"/>
<path d="M7 50.5854C7 51.1377 7.44771 51.5854 8 51.5854H12.5834C13.4743 51.5854 13.9205 50.5083 13.2905 49.8783L8.70711 45.2949C8.07714 44.6649 7 45.1111 7 46.002V50.5854Z" fill="#0496C7"/>
<path d="M75.3637 54.7071C74.9732 54.3166 74.34 54.3166 73.9495 54.7071L70.7085 57.9481C70.0786 58.578 70.5247 59.6551 71.4156 59.6552L77.8975 59.6552C78.7885 59.6552 79.2346 58.578 78.6046 57.9481L75.3637 54.7071Z" fill="#0496C7"/>
</svg>
